Coordinates
version=1
nRows=21
nColumns=34
inDegrees=no

Units are S.I. units (second, meters, Newtons, ...)
If the header above contains a line with 'inDegrees', this indicates whether rotational values are in degrees (yes) or radians (no).

endheader
time	pelvis_tilt	pelvis_list	pelvis_rotation	pelvis_tx	pelvis_ty	pelvis_tz	hip_flexion_r	hip_adduction_r	hip_rotation_r	knee_angle_r	ankle_angle_r	subtalar_angle_r	mtp_angle_r	hip_flexion_l	hip_adduction_l	hip_rotation_l	knee_angle_l	ankle_angle_l	subtalar_angle_l	mtp_angle_l	lumbar_extension	lumbar_bending	lumbar_rotation	arm_flex_r	arm_add_r	arm_rot_r	elbow_flex_r	pro_sup_r	arm_flex_l	arm_add_l	arm_rot_l	elbow_flex_l	pro_sup_l
9.84	-0.496876	-0.0198164	-0.0706386	-0.260818	0.929589	-0.572815	1.05769	-0.0625374	-0.059081	0.888205	0.331213	-0.203756	-0.117831	1.11812	-0.456923	-0.173527	0.954562	0.15333	0.0989217	-0.117831	-0.146247	0.179452	0.0396559	0.0445579	-0.29698	-0.141047	0.875454	1.61012	-0.0746101	-0.160723	-0.147324	0.843987	1.35466
9.85	-0.489998	-0.0183448	-0.0673169	-0.258939	0.936604	-0.570708	1.03277	-0.062049	-0.0599441	0.85918	0.319184	-0.20555	-0.117831	1.09598	-0.456008	-0.185558	0.930968	0.133989	0.109732	-0.117831	-0.142506	0.174828	0.038652	0.0406447	-0.297618	-0.136734	0.865681	1.61666	-0.0779402	-0.159358	-0.143618	0.839794	1.35653
9.86	-0.482864	-0.0168626	-0.0641676	-0.257017	0.943328	-0.568641	1.0081	-0.0616909	-0.0609916	0.831077	0.307797	-0.206613	-0.117831	1.07366	-0.455039	-0.197502	0.907831	0.116526	0.120589	-0.117831	-0.138877	0.170053	0.0375398	0.0371106	-0.298038	-0.13232	0.855738	1.62316	-0.0814915	-0.158076	-0.139905	0.83539	1.35783
9.87	-0.475591	-0.0155228	-0.0612265	-0.255054	0.949742	-0.566631	0.983808	-0.0613955	-0.0624714	0.803939	0.29716	-0.206737	-0.117831	1.05132	-0.453942	-0.20879	0.885108	0.100902	0.13124	-0.117831	-0.13524	0.165362	0.0363384	0.0339431	-0.298346	-0.127627	0.845778	1.6296	-0.0852244	-0.156791	-0.136233	0.830662	1.35862
9.88	-0.468318	-0.0144796	-0.0585269	-0.253053	0.955834	-0.564696	0.960023	-0.0610758	-0.0645949	0.777775	0.287345	-0.20575	-0.117831	1.02918	-0.452674	-0.218869	0.862749	0.0870143	0.141503	-0.117831	-0.131456	0.160987	0.0350947	0.0310692	-0.298649	-0.122507	0.836024	1.63596	-0.0890918	-0.155411	-0.13266	0.825517	1.35902
9.89	-0.461177	-0.0138592	-0.0560996	-0.251016	0.961595	-0.56285	0.936858	-0.0606305	-0.0674829	0.752559	0.278373	-0.203572	-0.117831	1.00739	-0.451224	-0.227298	0.840699	0.0747271	0.151281	-0.117831	-0.127397	0.157119	0.033875	0.0283707	-0.299051	-0.116875	0.826739	1.64225	-0.093045	-0.153846	-0.129252	0.819904	1.35914
9.9	-0.454261	-0.0137381	-0.0539696	-0.248947	0.967	-0.561108	0.914378	-0.0599677	-0.0711536	0.728237	0.270218	-0.200219	-0.117831	0.986058	-0.449597	-0.233821	0.818898	0.0639075	0.160543	-0.117831	-0.12298	0.153882	0.0327523	0.0257113	-0.299633	-0.110713	0.818193	1.64844	-0.0970361	-0.152018	-0.12608	0.813815	1.35912
9.91	-0.447613	-0.0141343	-0.0521533	-0.246847	0.972064	-0.559477	0.892586	-0.0590211	-0.0755444	0.704732	0.262824	-0.195778	-0.117831	0.965184	-0.447812	-0.238392	0.797276	0.0544448	0.169295	-0.117831	-0.118184	0.151322	0.0317951	0.022967	-0.300446	-0.10407	0.810613	1.65436	-0.101019	-0.149873	-0.123222	0.807284	1.35901
9.92	-0.44122	-0.0150179	-0.0506598	-0.244718	0.976804	-0.55796	0.871428	-0.057752	-0.0805374	0.681955	0.256116	-0.190379	-0.117831	0.944688	-0.445896	-0.241156	0.775768	0.0462611	0.177523	-0.117831	-0.113045	0.149418	0.0310598	0.020054	-0.301496	-0.0970515	0.804126	1.65969	-0.104953	-0.147377	-0.120754	0.800371	1.35885
9.93	-0.435031	-0.0163268	-0.0494932	-0.242561	0.981243	-0.556558	0.850804	-0.0561431	-0.0859811	0.659809	0.250008	-0.184181	-0.117831	0.924436	-0.443885	-0.242422	0.754322	0.0393098	0.185173	-0.117831	-0.107648	0.148096	0.0305854	0.0169466	-0.302739	-0.089813	0.798722	1.66411	-0.108802	-0.144529	-0.118737	0.793146	1.35868
9.94	-0.428966	-0.0179811	-0.0486545	-0.240374	0.985404	-0.555266	0.830593	-0.0541928	-0.0917054	0.638201	0.244414	-0.17735	-0.117831	0.904265	-0.441828	-0.242616	0.732905	0.0335637	0.192143	-0.117831	-0.102098	0.147251	0.0303902	0.0136797	-0.304093	-0.0825299	0.79424	1.66737	-0.112542	-0.14135	-0.117202	0.785676	1.35852
9.95	-0.422943	-0.019898	-0.0481413	-0.238158	0.989311	-0.554078	0.810672	-0.0519094	-0.0975356	0.617055	0.239252	-0.170047	-0.117831	0.884014	-0.439777	-0.242237	0.711512	0.0289978	0.198308	-0.117831	-0.0965016	0.146768	0.0304692	0.0103378	-0.305451	-0.075357	0.790392	1.66938	-0.116161	-0.137889	-0.116152	0.778024	1.35838
9.96	-0.416885	-0.0220031	-0.0479453	-0.23591	0.992984	-0.552989	0.790936	-0.0493065	-0.103305	0.596315	0.234446	-0.162432	-0.117831	0.863552	-0.437785	-0.241797	0.690151	0.0255691	0.20354	-0.117831	-0.0909449	0.14654	0.0307939	0.00703609	-0.306702	-0.068399	0.786803	1.67022	-0.11966	-0.134211	-0.115567	0.770241	1.35823
9.97	-0.410743	-0.0242361	-0.0480503	-0.233629	0.996442	-0.551993	0.771317	-0.0464037	-0.108865	0.575947	0.229926	-0.15465	-0.117831	0.842788	-0.435892	-0.241757	0.668834	0.0232028	0.207724	-0.117831	-0.0854768	0.14648	0.0313156	0.00389617	-0.307749	-0.0616985	0.783074	1.67009	-0.123048	-0.130388	-0.115419	0.762363	1.35802
9.98	-0.404505	-0.0265525	-0.0484334	-0.231314	0.999698	-0.551086	0.751797	-0.0432271	-0.114093	0.555943	0.225629	-0.146827	-0.117831	0.821689	-0.434111	-0.242473	0.647562	0.021789	0.210771	-0.117831	-0.0800962	0.146527	0.0319762	0.00101542	-0.308523	-0.0552396	0.778839	1.66931	-0.126341	-0.126484	-0.115663	0.754403	1.35772
9.99	-0.398209	-0.0289266	-0.0490691	-0.228965	1.00276	-0.550268	0.732413	-0.0398049	-0.118896	0.536306	0.221496	-0.139064	-0.117831	0.800286	-0.43243	-0.244147	0.626323	0.0211922	0.212628	-0.117831	-0.0747454	0.146659	0.032727	-0.0015619	-0.308997	-0.0489661	0.773835	1.66832	-0.129551	-0.12255	-0.116232	0.74635	1.35736
10	-0.391934	-0.031358	-0.0499317	-0.226583	1.00566	-0.54954	0.713254	-0.0361551	-0.123211	0.517044	0.217463	-0.131441	-0.117831	0.778671	-0.430824	-0.246813	0.605088	0.0212683	0.213276	-0.117831	-0.0693204	0.146891	0.0335401	-0.00385967	-0.309188	-0.0428019	0.767934	1.66757	-0.132684	-0.11862	-0.117033	0.738183	1.35696
10.01	-0.38579	-0.0338772	-0.0509949	-0.22417	1.00839	-0.548907	0.694422	-0.0322762	-0.127006	0.498151	0.213463	-0.124033	-0.117831	0.756979	-0.429271	-0.250339	0.583821	0.0218821	0.212741	-0.117831	-0.0636956	0.147282	0.0344098	-0.00596518	-0.309152	-0.0366692	0.761151	1.66753	-0.135738	-0.114722	-0.117936	0.729885	1.35658
10.02	-0.379878	-0.0365364	-0.0522287	-0.221729	1.01097	-0.548374	0.676006	-0.0281499	-0.130273	0.479593	0.209431	-0.11691	-0.117831	0.735354	-0.427758	-0.254473	0.562477	0.0229179	0.211095	-0.117831	-0.0577584	0.147916	0.0353421	-0.00800714	-0.308967	-0.0305027	0.753618	1.66857	-0.138709	-0.110885	-0.118789	0.721458	1.3563
10.03	-0.374271	-0.0393881	-0.0535974	-0.219261	1.01339	-0.547946	0.658039	-0.0237583	-0.133019	0.461306	0.20531	-0.110142	-0.117831	0.713907	-0.426274	-0.258898	0.541011	0.0242827	0.208457	-0.117831	-0.0514412	0.148874	0.036342	-0.010125	-0.308711	-0.0242591	0.745542	1.67086	-0.141595	-0.107141	-0.119422	0.71293	1.35621
10.04	-0.368988	-0.0424625	-0.0550598	-0.216767	1.01566	-0.547627	0.64049	-0.0191065	-0.135256	0.443202	0.201062	-0.103786	-0.117831	0.69269	-0.424802	-0.263311	0.519383	0.0259058	0.204996	-0.117831	-0.0447402	0.15021	0.037402	-0.0124405	-0.308447	-0.0179165	0.737162	1.67419	-0.144393	-0.103529	-0.119681	0.704359	1.35634
